<mxfile host="app.diagrams.net" modified="2024-03-16T07:42:00.031Z" agent="Mozilla/5.0 (Windows NT 10.0; Win64; x64) AppleWebKit/537.36 (KHTML, like Gecko) Chrome/122.0.0.0 Safari/537.36" version="23.1.5" etag="Tqjey0iANeYg5UKTLCOB" type="github">
  <diagram name="Страница — 1" id="q4v7WZ1FvB4-SBYcC9OK">
    <mxGraphModel>
      <root>
        <mxCell id="0" />
        <mxCell id="1" parent="0" />
      </root>
    </mxGraphModel>
  </diagram>
</mxfile>
